<svg xmlns="http://www.w3.org/2000/svg" width="35" height="34" viewBox="0 0 35 34" fill="none"><path d="M6.04626 11.3334H28.7129M6.04626 11.3334V23.8003C6.04626 25.3871 6.04626 26.1801 6.35508 26.7862C6.62672 27.3193 7.05985 27.7532 7.59298 28.0249C8.19847 28.3334 8.99151 28.3334 10.5752 28.3334H24.184C25.7677 28.3334 26.5596 28.3334 27.1651 28.0249C27.6982 27.7532 28.1328 27.3193 28.4044 26.7862C28.7129 26.1807 28.7129 25.3888 28.7129 23.8051V11.3334M6.04626 11.3334V10.2003C6.04626 8.6135 6.04626 7.8195 6.35508 7.21342C6.62672 6.68029 7.05985 6.24716 7.59298 5.97552C8.19906 5.66671 8.99306 5.66671 10.5799 5.66671H11.7129M28.7129 11.3334V10.1957C28.7129 8.61195 28.7129 7.81891 28.4044 7.21342C28.1328 6.68029 27.6982 6.24716 27.1651 5.97552C26.559 5.66671 25.7667 5.66671 24.1799 5.66671H23.0463M11.7129 5.66671H23.0463M11.7129 5.66671V2.83337M23.0463 5.66671V2.83337M23.0463 17H11.7129" stroke="white" stroke-width="2" stroke-linecap="round" stroke-linejoin="round"></path></svg>