<svg xmlns="http://www.w3.org/2000/svg" width="32" height="31" viewBox="0 0 32 31" fill="none"><path d="M12.6537 5.49891C12.2613 4.51812 11.3114 3.875 10.2551 3.875H6.70201C5.35036 3.875 4.25464 4.97046 4.25464 6.3221C4.25464 17.8111 13.5686 27.125 25.0575 27.125C26.4092 27.125 27.5046 26.0292 27.5046 24.6775L27.5052 21.1239C27.5052 20.0675 26.8623 19.1178 25.8815 18.7255L22.4761 17.3638C21.5951 17.0114 20.592 17.17 19.8631 17.7774L18.9842 18.5105C17.9578 19.3658 16.4475 19.2978 15.5027 18.353L13.0279 15.8759C12.0832 14.9312 12.0133 13.4221 12.8687 12.3957L13.6016 11.5169C14.209 10.7879 14.369 9.78458 14.0166 8.90358L12.6537 5.49891Z" stroke="white" stroke-width="2" stroke-linecap="round" stroke-linejoin="round"></path></svg>