<svg xmlns="http://www.w3.org/2000/svg" width="36" height="35" viewBox="0 0 36 35" fill="none"><path d="M22.2546 24.7917V26.25C22.2546 28.6663 20.2959 30.625 17.8796 30.625C15.4634 30.625 13.5046 28.6663 13.5046 26.25V24.7917M22.2546 24.7917H13.5046M22.2546 24.7917H27.4908C28.0486 24.7917 28.3289 24.7917 28.5548 24.7155C28.9862 24.57 29.3238 24.2312 29.4694 23.7997C29.5459 23.5729 29.5459 23.2918 29.5459 22.7295C29.5459 22.4835 29.5456 22.3605 29.5263 22.2432C29.49 22.0215 29.4039 21.8114 29.2729 21.6289C29.2037 21.5325 29.1157 21.4445 28.9423 21.271L28.3742 20.703C28.1909 20.5197 28.088 20.2711 28.088 20.0119V14.5834C28.088 8.94546 23.5175 4.37503 17.8796 4.37504C12.2417 4.37505 7.67129 8.94548 7.67129 14.5834V20.0119C7.67129 20.2711 7.5681 20.5197 7.38482 20.703L6.81679 21.271C6.64282 21.445 6.55572 21.5324 6.48639 21.6289C6.35537 21.8114 6.26858 22.0215 6.2322 22.2432C6.21295 22.3605 6.21295 22.4835 6.21295 22.7296C6.21295 23.2918 6.21295 23.5729 6.28944 23.7997C6.43498 24.2311 6.77412 24.57 7.20559 24.7155C7.43148 24.7917 7.71068 24.7917 8.26855 24.7917H13.5046M26.6567 2.93665C28.668 4.45231 30.2526 6.46303 31.256 8.77299M9.10332 2.93665C7.09196 4.45231 5.50741 6.46303 4.50397 8.77299" stroke="white" stroke-width="2" stroke-linecap="round" stroke-linejoin="round"></path></svg>